<svg width="150" height="150" viewBox="0 0 150 150" fill="none" xmlns="http://www.w3.org/2000/svg">
<path d="M48.3284 96.9738H48.3353C48.341 96.9738 48.3467 96.9727 48.3524 96.9727H128.027C129.989 96.9727 131.713 95.6715 132.253 93.7855L149.831 32.2621C150.209 30.9357 149.944 29.5098 149.114 28.4088C148.283 27.3079 146.984 26.6602 145.605 26.6602H38.1935L35.0521 12.5233C34.6046 10.5126 32.8217 9.08206 30.7617 9.08206H4.39453C1.96724 9.08206 0 11.0493 0 13.4766C0 15.9039 1.96724 17.8711 4.39453 17.8711H27.2369C27.7931 20.3762 42.2699 85.5229 43.103 89.2708C38.4327 91.301 35.1562 95.9576 35.1562 101.367C35.1562 108.636 41.0706 114.551 48.3398 114.551H128.027C130.455 114.551 132.422 112.584 132.422 110.156C132.422 107.729 130.455 105.762 128.027 105.762H48.3398C45.9171 105.762 43.9453 103.79 43.9453 101.367C43.9453 98.9479 45.9103 96.9795 48.3284 96.9738V96.9738ZM139.779 35.4492L124.712 88.1836H51.8646L40.1459 35.4492H139.779Z" fill="black"/>
<path d="M43.9453 127.734C43.9453 135.004 49.8596 140.918 57.1289 140.918C64.3982 140.918 70.3125 135.004 70.3125 127.734C70.3125 120.465 64.3982 114.551 57.1289 114.551C49.8596 114.551 43.9453 120.465 43.9453 127.734ZM57.1289 123.34C59.5516 123.34 61.5234 125.312 61.5234 127.734C61.5234 130.157 59.5516 132.129 57.1289 132.129C54.7062 132.129 52.7343 130.157 52.7343 127.734C52.7343 125.312 54.7062 123.34 57.1289 123.34Z" fill="black"/>
<path d="M106.055 127.734C106.055 135.004 111.969 140.918 119.238 140.918C126.508 140.918 132.422 135.004 132.422 127.734C132.422 120.465 126.508 114.551 119.238 114.551C111.969 114.551 106.055 120.465 106.055 127.734ZM119.238 123.34C121.661 123.34 123.633 125.312 123.633 127.734C123.633 130.157 121.661 132.129 119.238 132.129C116.816 132.129 114.844 130.157 114.844 127.734C114.844 125.312 116.816 123.34 119.238 123.34Z" fill="black"/>
</svg>
