<svg width="150" height="150" viewBox="0 0 150 150" fill="none" xmlns="http://www.w3.org/2000/svg">
<path d="M128.033 96.9668C119.864 88.7982 110.141 82.7511 99.5329 79.0904C110.895 71.2649 118.359 58.1684 118.359 43.3594C118.359 19.4511 98.9083 0 75 0C51.0917 0 31.6406 19.4511 31.6406 43.3594C31.6406 58.1684 39.1052 71.2649 50.4674 79.0904C39.859 82.7511 30.1359 88.7982 21.9671 96.9668C7.80147 111.133 0 129.967 0 150H11.7188C11.7188 115.107 40.1065 86.7188 75 86.7188C109.893 86.7188 138.281 115.107 138.281 150H150C150 129.967 142.199 111.133 128.033 96.9668ZM75 75C57.5534 75 43.3594 60.8062 43.3594 43.3594C43.3594 25.9125 57.5534 11.7188 75 11.7188C92.4466 11.7188 106.641 25.9125 106.641 43.3594C106.641 60.8062 92.4466 75 75 75Z" fill="black"/>
</svg>
