<svg width="20" height="40" viewBox="0 0 20 40" fill="none" xmlns="http://www.w3.org/2000/svg">
<path d="M17.8947 0H2.10526C0.942632 0 0 1.05353 0 2.35294V37.6471C0 38.9465 0.942632 40 2.10526 40H17.8947C19.0574 40 20 38.9465 20 37.6471V2.35294C20 1.05353 19.0574 0 17.8947 0ZM6.31579 1.76471H13.6842C13.8295 1.76471 13.9474 1.89647 13.9474 2.05882C13.9474 2.22118 13.8295 2.35294 13.6842 2.35294H6.31579C6.17053 2.35294 6.05263 2.22118 6.05263 2.05882C6.05263 1.89647 6.17053 1.76471 6.31579 1.76471ZM10 38.2353C9.41895 38.2353 8.94737 37.7082 8.94737 37.0588C8.94737 36.4094 9.41895 35.8824 10 35.8824C10.5811 35.8824 11.0526 36.4094 11.0526 37.0588C11.0526 37.7082 10.5811 38.2353 10 38.2353ZM18.4211 34.7059H1.57895V3.52941H18.4211V34.7059Z" fill="white"/>
</svg>
