<svg width="15" height="15" viewBox="0 0 15 15" fill="none" xmlns="http://www.w3.org/2000/svg">
<path d="M13.6358 0.25H1.18164C0.755178 0.25 0.408936 0.595551 0.408936 1.02271V13.4768C0.408936 13.904 0.755178 14.25 1.18164 14.25H7.88658V8.82838H6.06223V6.71519H7.88658V5.15687C7.88658 3.34889 8.99054 2.36388 10.6037 2.36388C11.3771 2.36388 12.0403 2.42174 12.2337 2.44686V4.33668L11.1148 4.33714C10.2377 4.33714 10.0685 4.75415 10.0685 5.36572V6.7145H12.1611V8.82745H10.0682V14.2493H13.6355C14.0625 14.2493 14.4089 13.9028 14.4089 13.4768V1.02225C14.4087 0.595551 14.0627 0.25 13.6358 0.25Z" fill="black" fill-opacity="0.5"/>
</svg>
