<svg width="14" height="14" viewBox="0 0 14 14" fill="none" xmlns="http://www.w3.org/2000/svg">
<path d="M12.2488 0H1.75013C0.762153 0 0 0.762153 0 1.75013V12.2499C0 13.2378 0.762153 14 1.75013 14H12.2499C13.2378 14 14 13.2378 14 12.2499V1.75013C13.999 0.762153 13.2368 0 12.2488 0ZM7.00993 4.24987C8.56247 4.24987 9.82018 5.4689 9.82018 6.97334C9.82018 8.47674 8.56247 9.69681 7.00993 9.69681C5.45844 9.69681 4.19969 8.47674 4.19969 6.97334C4.19969 5.4689 5.45844 4.24987 7.00993 4.24987ZM12.2488 11.8118C12.2488 12.1181 12.1171 12.2488 11.8118 12.2488H2.18714C1.88186 12.2488 1.75013 12.1181 1.75013 11.8118V5.6874L2.84056 5.92473C2.72347 6.30528 2.6597 6.70779 2.6597 7.12598C2.6597 9.45217 4.60847 11.3403 7.00993 11.3403C9.41244 11.3403 11.3602 9.45217 11.3602 7.12598C11.3602 6.70779 11.2964 6.30528 11.1803 5.92473L12.2499 5.6874V11.8118H12.2488ZM12.2488 3.93727C12.2488 4.17878 12.0533 4.37428 11.8118 4.37428H10.0617C9.82018 4.37428 9.62467 4.17878 9.62467 3.93727V2.18819C9.62467 1.94668 9.82018 1.75118 10.0617 1.75118H11.8118C12.0533 1.75118 12.2488 1.94668 12.2488 2.18819V3.93727Z" fill="#7A7A7A"/>
</svg>
