<svg width="20" height="27" viewBox="0 0 20 27" fill="none" xmlns="http://www.w3.org/2000/svg">
<path d="M11.9468 2.97676C11.3369 2.05984 10.7988 1.21628 10.2965 0.446065C10.2248 0.336035 10.1171 0.226005 10.0095 0.152651C9.579 -0.140763 9.00497 0.00594427 8.71796 0.446065C8.25157 1.21628 7.71342 2.02316 7.06765 2.97676C4.23341 7.23126 0 13.6497 0 17.3174C0 19.9948 1.07629 22.4154 2.79836 24.1759C4.52042 25.8997 6.88827 27 9.50724 27C12.1262 27 14.4941 25.8997 16.2161 24.1392C17.9382 22.3787 19.0145 19.9581 19.0145 17.2807C19.0145 13.613 14.7811 7.23126 11.9468 2.97676ZM14.9246 22.8189C13.5254 24.2492 11.6239 25.0928 9.50724 25.0928C7.39054 25.0928 5.48909 24.2126 4.08991 22.8189C2.69073 21.3885 1.86557 19.4446 1.86557 17.2807C1.86557 14.1998 5.9196 8.07482 8.61033 4.00371C8.93322 3.52691 9.22023 3.05011 9.50724 2.64667C9.79425 3.05011 10.0813 3.52691 10.4042 4.00371C13.0949 8.1115 17.1489 14.1998 17.1489 17.2807C17.1489 19.4446 16.2879 21.3885 14.9246 22.8189Z" fill="white"/>
</svg>
