<svg width="48" height="48" viewBox="0 0 48 48" fill="none" xmlns="http://www.w3.org/2000/svg">
<path d="M32.5077 15.4916C30.349 13.3329 27.3014 11.936 23.9998 11.936C20.6982 11.936 17.6506 13.2694 15.4918 15.4916C13.3331 17.6503 11.9363 20.6979 11.9363 23.9995C11.9363 27.3011 13.3331 30.3487 15.4918 32.5075C17.6506 34.6662 20.6982 36.063 23.9998 36.063C27.3014 36.063 30.349 34.7297 32.5077 32.5075C34.6664 30.3487 36.0633 27.3011 36.0633 23.9995C36.0633 20.6979 34.7299 17.6503 32.5077 15.4916ZM30.222 30.2217C28.6347 31.809 26.4125 32.7614 23.9998 32.7614C21.5871 32.7614 19.3649 31.809 17.7775 30.2217C16.1902 28.6344 15.2379 26.4122 15.2379 23.9995C15.2379 21.5868 16.1902 19.3646 17.7775 17.7773C19.3649 16.19 21.5871 15.2376 23.9998 15.2376C26.4125 15.2376 28.6347 16.19 30.222 17.7773C31.8093 19.3646 32.7617 21.5868 32.7617 23.9995C32.7617 26.4122 31.8093 28.6344 30.222 30.2217Z" fill="white"/>
<path d="M46.3491 22.3491H41.4602C40.5714 22.3491 39.8094 23.111 39.8094 23.9999C39.8094 24.8888 40.5714 25.6507 41.4602 25.6507H46.3491C47.238 25.6507 47.9999 24.8888 47.9999 23.9999C47.9999 23.111 47.238 22.3491 46.3491 22.3491Z" fill="white"/>
<path d="M24.0002 39.8096C23.1113 39.8096 22.3494 40.5715 22.3494 41.4604V46.3493C22.3494 47.2382 23.1113 48.0001 24.0002 48.0001C24.889 48.0001 25.651 47.2382 25.651 46.3493V41.4604C25.651 40.5715 24.889 39.8096 24.0002 39.8096Z" fill="white"/>
<path d="M40.9523 38.6665L37.4603 35.1744C36.8888 34.5395 35.8095 34.5395 35.1746 35.1744C34.5396 35.8094 34.5396 36.8252 35.1746 37.4601L38.6666 40.9522C39.3015 41.5871 40.3174 41.5871 40.9523 40.9522C41.5873 40.3173 41.5873 39.3014 40.9523 38.6665Z" fill="white"/>
<path d="M24.0002 0C23.1113 0 22.3494 0.761904 22.3494 1.65079V6.53968C22.3494 7.42857 23.1113 8.19047 24.0002 8.19047C24.889 8.19047 25.651 7.42857 25.651 6.53968V1.65079C25.651 0.761904 24.889 0 24.0002 0Z" fill="white"/>
<path d="M41.0159 7.04748C40.381 6.41256 39.3651 6.41256 38.7302 7.04748L35.2382 10.5395C34.6032 11.1745 34.6032 12.1903 35.2382 12.8253C35.8096 13.4602 36.8889 13.4602 37.5239 12.8253L41.0159 9.33319C41.6509 8.69827 41.6509 7.6824 41.0159 7.04748Z" fill="white"/>
<path d="M6.53968 22.3491H1.65079C0.761904 22.3491 0 23.111 0 23.9999C0 24.8888 0.698412 25.6507 1.65079 25.6507H6.53968C7.42857 25.6507 8.19047 24.8888 8.19047 23.9999C8.19047 23.111 7.42857 22.3491 6.53968 22.3491Z" fill="white"/>
<path d="M12.7618 35.1744C12.1904 34.5395 11.111 34.5395 10.4761 35.1744L6.984 38.6665C6.34908 39.3014 6.34908 40.3173 6.984 40.9522C7.61892 41.5871 8.6348 41.5871 9.26972 40.9522L12.7618 37.4601C13.3967 36.8252 13.3967 35.8094 12.7618 35.1744Z" fill="white"/>
<path d="M12.7618 10.5395L9.26972 7.04748C8.6348 6.41256 7.61892 6.41256 6.984 7.04748C6.34908 7.6824 6.34908 8.69827 6.984 9.33319L10.4761 12.8253C11.111 13.4602 12.1269 13.4602 12.7618 12.8253C13.3967 12.1903 13.3967 11.1745 12.7618 10.5395Z" fill="white"/>
</svg>
