<svg width="27" height="35" viewBox="0 0 27 35" fill="none" xmlns="http://www.w3.org/2000/svg">
<path d="M14.5588 2.5C14.0515 2.5 13.6158 2.71484 13.2518 3.14453C12.8879 3.57422 12.7059 4.08854 12.7059 4.6875V17.5H12.1765V7.1875C12.1765 6.58854 11.9945 6.07422 11.6305 5.64453C11.2665 5.21484 10.8309 5 10.3235 5C9.81618 5 9.38051 5.21484 9.01654 5.64453C8.65257 6.07422 8.47059 6.58854 8.47059 7.1875V22.5L5.92279 18.4961C5.50368 17.832 4.94118 17.5 4.23529 17.5C3.65074 17.5 3.15165 17.7441 2.73805 18.2324C2.32445 18.7207 2.11765 19.3099 2.11765 20C2.11765 20.5599 2.26103 21.0612 2.54779 21.5039L8.90074 31.5039C9.31985 32.168 9.88235 32.5 10.5882 32.5H21.9706C22.3456 32.5 22.682 32.3568 22.9798 32.0703C23.2776 31.7839 23.4651 31.4193 23.5423 30.9766L24.7996 23.0664C24.8548 22.6497 24.8824 22.2656 24.8824 21.9141V12.1875C24.8824 11.5885 24.7004 11.0742 24.3364 10.6445C23.9724 10.2148 23.5368 10 23.0294 10C22.5221 10 22.0864 10.2148 21.7224 10.6445C21.3585 11.0742 21.1765 11.5885 21.1765 12.1875V17.5H20.6471V7.1875C20.6471 6.58854 20.4651 6.07422 20.1011 5.64453C19.7371 5.21484 19.3015 5 18.7941 5C18.2868 5 17.8511 5.21484 17.4871 5.64453C17.1232 6.07422 16.9412 6.58854 16.9412 7.1875V17.5H16.4118V4.6875C16.4118 4.08854 16.2298 3.57422 15.8658 3.14453C15.5018 2.71484 15.0662 2.5 14.5588 2.5ZM14.5588 0C15.3088 0 16.0009 0.23112 16.6351 0.693359C17.2693 1.1556 17.7574 1.78385 18.0993 2.57813C18.3088 2.52604 18.5404 2.5 18.7941 2.5C19.886 2.5 20.8208 2.95898 21.5983 3.87695C22.3759 4.79492 22.7647 5.89844 22.7647 7.1875V7.51953C23.9228 7.44141 24.9182 7.85807 25.7509 8.76953C26.5836 9.68099 27 10.8203 27 12.1875V21.9141C27 22.4349 26.9559 22.9753 26.8676 23.5352L25.6103 31.4258C25.4559 32.4544 25.034 33.3073 24.3447 33.9844C23.6553 34.6615 22.864 35 21.9706 35H10.5882C9.92647 35 9.29504 34.821 8.69393 34.4629C8.09283 34.1048 7.59375 33.6198 7.19669 33.0078L0.84375 23.0078C0.28125 22.1224 0 21.1198 0 20C0 18.6198 0.413603 17.4414 1.24081 16.4648C2.06801 15.4883 3.06618 15 4.23529 15C5.09559 15 5.80147 15.2214 6.35294 15.6641V7.1875C6.35294 5.89844 6.74173 4.79492 7.5193 3.87695C8.29687 2.95898 9.23162 2.5 10.3235 2.5C10.5772 2.5 10.8088 2.52604 11.0184 2.57813C11.3603 1.78385 11.8483 1.1556 12.4825 0.693359C13.1167 0.23112 13.8088 0 14.5588 0Z" fill="white"/>
</svg>
