<svg width="38" height="38" viewBox="0 0 38 38" fill="none" xmlns="http://www.w3.org/2000/svg">
<g clip-path="url(#clip0)">
<path d="M25.6095 25.7188C25.3516 24.8995 25.0508 24.1663 24.6641 23.4764C24.3633 22.9589 24.0625 22.4845 23.6757 22.0101C23.4179 21.7083 23.1171 21.4064 22.8593 21.1045V7.391C22.8593 6.52852 22.6874 5.66603 22.3866 4.93292C21.3552 2.47484 19.0777 0.922363 16.4135 0.922363C13.7493 0.922363 11.4717 2.47484 10.4404 4.93292C10.1396 5.70916 9.96774 6.52852 9.96774 7.391V21.1476C9.66693 21.4064 9.4091 21.7083 9.15127 22.0533C8.76453 22.5276 8.46372 23.002 8.16292 23.5195C7.77618 24.2095 7.47537 24.9426 7.30349 25.7188C7.08863 26.4951 7.00269 27.2713 7.00269 28.0907C7.00269 29.3844 7.26052 30.5919 7.73321 31.7131C8.20589 32.8774 8.93641 33.9124 9.79585 34.7749C10.6553 35.6374 11.6866 36.3274 12.8468 36.8449C13.9641 37.3192 15.1673 37.578 16.4565 37.578C17.7456 37.578 18.9488 37.3192 20.0661 36.8449C21.2263 36.3705 22.2577 35.6374 23.1171 34.7749C23.9765 33.9124 24.6641 32.8774 25.1797 31.7131C25.6524 30.5919 25.9103 29.3844 25.9103 28.0907C25.9103 27.2713 25.8243 26.4951 25.6095 25.7188ZM23.0741 30.8075C22.7303 31.67 22.1717 32.4893 21.4842 33.1793C20.7966 33.8693 20.0231 34.3868 19.1207 34.7749C18.2613 35.1199 17.3159 35.3355 16.3705 35.3355C15.3822 35.3355 14.4368 35.1199 13.6203 34.7749C12.7609 34.4299 11.9444 33.8693 11.2569 33.1793C10.5693 32.4893 10.0537 31.7131 9.66693 30.8075C9.32316 29.945 9.1083 28.9963 9.1083 28.0475C9.1083 27.4007 9.19424 26.7969 9.32316 26.2363C9.45208 25.6326 9.70991 25.072 10.0107 24.5545C10.2256 24.1663 10.4834 23.7782 10.7412 23.4332C11.042 23.0882 11.3428 22.7864 11.6866 22.4845L12.0734 22.1395V21.622V7.391C12.0734 6.83039 12.2023 6.26977 12.3742 5.75228C12.589 5.27791 12.8468 4.84667 13.1906 4.45855L13.2766 4.3723C13.6633 3.98419 14.136 3.63919 14.6517 3.42357C15.1673 3.20795 15.683 3.1217 16.2846 3.1217C16.8432 3.1217 17.4018 3.25107 17.9175 3.42357C18.4332 3.63919 18.9059 3.94106 19.2926 4.3723L19.3785 4.45855C19.7223 4.84667 20.0231 5.27791 20.195 5.75228C20.4099 6.26977 20.4958 6.78726 20.4958 7.391V21.6651V22.1826L20.8826 22.5276C21.2263 22.8295 21.5271 23.1314 21.8279 23.4764C22.0858 23.8213 22.3436 24.2095 22.5585 24.5976C22.8593 25.1151 23.0741 25.7188 23.246 26.2794C23.3749 26.84 23.4609 27.4438 23.4609 28.0907C23.6328 29.0394 23.4179 29.9881 23.0741 30.8075Z" fill="white"/>
<path d="M27.9728 13.6445H24.707C24.1054 13.6445 23.5897 14.1189 23.5897 14.7658C23.5897 15.3695 24.1054 15.887 24.707 15.887H27.9728C28.5744 15.887 29.0901 15.4126 29.0901 14.7658C29.0901 14.162 28.6174 13.6445 27.9728 13.6445Z" fill="white"/>
<path d="M21.8278 26.6247C21.6989 26.1935 21.527 25.7623 21.3121 25.331C21.0973 24.8998 20.7965 24.5548 20.4957 24.2098C20.1519 23.8648 19.8081 23.5629 19.4214 23.3042L19.0346 23.0454V22.6142V7.39132C19.0346 5.9251 17.9174 4.76074 16.4134 4.76074C16.0696 4.76074 15.7258 4.84699 15.425 4.97636C14.4367 5.40761 13.7921 6.31322 13.7921 7.39132V22.6142V23.0454L13.4053 23.3042C13.0186 23.5629 12.6318 23.8648 12.331 24.2098C11.9873 24.5548 11.7294 24.9429 11.5146 25.331C11.2997 25.7191 11.1278 26.1935 10.9989 26.6247C10.87 27.056 10.827 27.5304 10.827 28.0047C10.827 28.7378 10.9989 29.4709 11.2567 30.1609C11.5575 30.8509 11.9443 31.4547 12.46 31.9722C12.9756 32.4896 13.5772 32.9209 14.2648 33.1796C14.9093 33.4384 15.6399 33.6109 16.4134 33.6109C17.1439 33.6109 17.8744 33.4384 18.5619 33.1796C19.2495 32.8778 19.8511 32.4896 20.3668 31.9722C20.8824 31.4547 21.3121 30.8509 21.57 30.1609C21.8278 29.5141 21.9997 28.781 21.9997 28.0047C21.9997 27.5304 21.9567 27.056 21.8278 26.6247ZM19.5073 29.3416C19.3354 29.7297 19.0776 30.1178 18.7768 30.4197C18.476 30.7215 18.0893 30.9803 17.7025 31.1528C17.3158 31.3253 16.886 31.4115 16.4134 31.4115C15.9407 31.4115 15.5109 31.3253 15.1242 31.1528C14.7375 30.9803 14.3507 30.7215 14.0499 30.4197C13.7491 30.1178 13.4913 29.7297 13.3194 29.3416C13.1475 28.9535 13.0616 28.5222 13.0616 28.0478C13.0616 27.746 13.1045 27.4441 13.1475 27.1854C13.2334 26.8835 13.3194 26.6247 13.4483 26.4091C13.5772 26.1504 13.7491 25.9348 13.964 25.7191C14.1358 25.5035 14.3937 25.331 14.6085 25.1585L15.5109 24.5979L16.0266 24.2529V23.6492V22.5711V7.39132C16.0266 7.3482 16.0266 7.30507 16.0696 7.26195C16.0696 7.21883 16.1125 7.1757 16.1555 7.13258L16.1985 7.08945C16.2415 7.08945 16.2415 7.04633 16.2844 7.04633C16.3274 7.04633 16.3704 7.0032 16.4563 7.0032C16.5423 7.0032 16.6282 7.04633 16.6712 7.08945L16.7142 7.13258C16.7571 7.1757 16.8001 7.21883 16.8001 7.26195C16.8001 7.30507 16.8431 7.3482 16.8431 7.39132V22.6142V23.6923V24.296L17.3587 24.641L18.2611 25.2016C18.519 25.3741 18.7338 25.5466 18.9057 25.7623C19.1206 25.9779 19.2495 26.1935 19.4214 26.4522C19.5503 26.711 19.6362 26.9697 19.7222 27.2285C19.8081 27.4872 19.8081 27.7891 19.8081 28.091C19.7651 28.5222 19.6792 28.9535 19.5073 29.3416Z" fill="white"/>
<path d="M29.6917 17.4785H24.707C24.1054 17.4785 23.5897 17.9529 23.5897 18.5997C23.5897 19.2035 24.0624 19.721 24.707 19.721H29.6917C30.2933 19.721 30.809 19.2466 30.809 18.5997C30.766 17.9529 30.2933 17.4785 29.6917 17.4785Z" fill="white"/>
<path d="M27.9728 6.01221H24.707C24.1054 6.01221 23.5897 6.48657 23.5897 7.13344C23.5897 7.7803 24.1054 8.25467 24.707 8.25467H27.9728C28.5744 8.25467 29.0901 7.7803 29.0901 7.13344C29.0901 6.5297 28.6174 6.01221 27.9728 6.01221Z" fill="white"/>
<path d="M29.6917 9.85107H24.707C24.1054 9.85107 23.5897 10.3254 23.5897 10.9723C23.5897 11.576 24.0624 12.0935 24.707 12.0935H29.6917C30.2933 12.0935 30.809 11.6192 30.809 10.9723C30.766 10.3254 30.2933 9.85107 29.6917 9.85107Z" fill="white"/>
</g>
<defs>
<clipPath id="clip0">
<rect width="36.526" height="36.6556" fill="white" transform="translate(0.642822 0.922363)"/>
</clipPath>
</defs>
</svg>
