<svg width="17" height="14" viewBox="0 0 17 14" fill="none" xmlns="http://www.w3.org/2000/svg">
<path d="M16.0186 1.65728C15.4268 1.93834 14.7949 2.12463 14.1349 2.21509C14.81 1.77789 15.3213 1.09085 15.556 0.262753C14.9265 0.669804 14.2298 0.957324 13.4856 1.11778C12.8758 0.427512 12.013 0 11.077 0C9.261 0 7.81685 1.58728 7.83873 3.53316C7.84188 3.81314 7.86691 4.08236 7.92379 4.33865C5.19518 4.19543 2.76635 2.78798 1.12124 0.643959C0.844187 1.1727 0.684992 1.77789 0.692318 2.42938C0.706074 3.65269 1.30327 4.73709 2.18233 5.36489C1.65521 5.35412 1.13635 5.18936 0.695435 4.92984C0.695556 4.94061 0.695714 4.95461 0.695871 4.96861C0.715173 6.68512 1.8682 8.11087 3.3629 8.43931C3.09678 8.51792 2.80621 8.55561 2.50421 8.55561C2.29421 8.55561 2.08206 8.54269 1.88253 8.49531C2.32326 9.89414 3.54082 10.9225 4.9752 10.9559C3.86977 11.896 2.45914 12.4624 0.925138 12.4624C0.656138 12.4624 0.397992 12.4495 0.139593 12.414C1.60394 13.423 3.33242 13.9991 5.18942 13.9991C11.2254 13.9991 14.4649 8.61484 14.4124 3.94775C14.4106 3.79161 14.4039 3.64085 14.3953 3.49116C15.0407 2.99366 15.5807 2.37231 16.0186 1.65728Z" fill="black" fill-opacity="0.5"/>
</svg>
