<svg width="157" height="46" viewBox="0 0 157 46" fill="none" xmlns="http://www.w3.org/2000/svg">
<path d="M35.0377 22.7516C35.004 19.0452 38.1068 17.242 38.2486 17.158C36.4914 14.6246 33.7677 14.2784 32.8106 14.2508C30.5231 14.0128 28.3041 15.6044 27.1389 15.6044C25.9503 15.6044 24.1559 14.2738 22.2218 14.3129C19.7331 14.3509 17.4049 15.7757 16.1279 17.9883C13.4927 22.4998 15.4581 29.1295 17.9829 32.7762C19.2458 34.5633 20.7216 36.5562 22.6533 36.4861C24.5431 36.4102 25.249 35.2958 27.5296 35.2958C29.7893 35.2958 30.4521 36.4861 32.4222 36.4412C34.4504 36.4102 35.7273 34.6472 36.9461 32.8452C38.4056 30.7993 38.9918 28.7822 39.015 28.6787C38.9685 28.6626 35.0772 27.1929 35.0377 22.7516Z" fill="white"/>
<path d="M31.3163 11.8518C32.3328 10.5948 33.0282 8.88476 32.8352 7.14941C31.364 7.21381 29.5242 8.15566 28.4647 9.38501C27.5274 10.4683 26.6901 12.2439 26.9064 13.9137C28.5589 14.0356 30.2557 13.0892 31.3163 11.8518Z" fill="white"/>
<path d="M62.4105 36.2295H59.7694L58.3227 31.7341H53.294L51.9159 36.2295H49.3446L54.3279 20.9253H57.4051L62.4105 36.2295ZM57.8866 29.8481L56.5782 25.8519C56.4398 25.4436 56.1793 24.4822 55.7979 22.9688H55.7514C55.5979 23.6197 55.3525 24.5811 55.0164 25.8519L53.7301 29.8481H57.8866Z" fill="white"/>
<path d="M75.2008 30.576C75.2008 32.4528 74.6856 33.9363 73.654 35.0254C72.7307 35.9948 71.5828 36.479 70.214 36.479C68.7359 36.479 67.6729 35.958 67.0275 34.9138V40.7041H64.548V28.8211C64.548 27.6424 64.5167 26.4337 64.4562 25.194H66.6367L66.7751 26.9432H66.8216C67.6485 25.6253 68.9033 24.9663 70.5873 24.9663C71.9038 24.9663 73.0028 25.4804 73.882 26.5096C74.76 27.5412 75.2008 28.8959 75.2008 30.576ZM72.6748 30.6657C72.6748 29.5916 72.4306 28.7061 71.9398 28.0081C71.4037 27.2824 70.6838 26.919 69.7814 26.919C69.1697 26.919 68.6138 27.1214 68.1172 27.5205C67.6194 27.923 67.2938 28.4485 67.1415 29.0994C67.0647 29.403 67.0263 29.6503 67.0263 29.8458V31.6869C67.0263 32.4885 67.2752 33.1658 67.7729 33.7201C68.2707 34.2721 68.9173 34.5493 69.7128 34.5493C70.6466 34.5493 71.3735 34.1916 71.8933 33.4821C72.4143 32.7702 72.6748 31.8318 72.6748 30.6657Z" fill="white"/>
<path d="M88.0363 30.576C88.0363 32.4528 87.5211 33.9363 86.4895 35.0254C85.565 35.9948 84.4183 36.479 83.0483 36.479C81.5702 36.479 80.5073 35.958 79.8618 34.9138V40.7041H77.3824V28.8211C77.3824 27.6424 77.351 26.4337 77.2905 25.194H79.4711L79.6095 26.9432H79.656C80.4817 25.6253 81.7365 24.9663 83.4217 24.9663C84.737 24.9663 85.836 25.4804 86.7175 26.5096C87.5944 27.5412 88.0363 28.8959 88.0363 30.576ZM85.5092 30.6657C85.5092 29.5916 85.2638 28.7061 84.773 28.0081C84.2369 27.2824 83.5193 26.919 82.6169 26.919C82.0052 26.919 81.4493 27.1214 80.9504 27.5205C80.4526 27.923 80.1281 28.4485 79.9758 29.0994C79.9002 29.403 79.8595 29.6503 79.8595 29.8458V31.6869C79.8595 32.4885 80.1095 33.1658 80.605 33.7201C81.1027 34.271 81.7493 34.5493 82.5471 34.5493C83.4821 34.5493 84.209 34.1916 84.7277 33.4821C85.2487 32.7702 85.5092 31.8318 85.5092 30.6657Z" fill="white"/>
<path d="M102.387 31.9365C102.387 33.2395 101.927 34.2986 101.012 35.1163C100.004 36.0087 98.5985 36.456 96.7959 36.456C95.1305 36.456 93.7955 36.1386 92.7883 35.5027L93.3617 33.4591C94.449 34.0962 95.6434 34.4136 96.9436 34.4136C97.8786 34.4136 98.6054 34.2043 99.1241 33.7892C99.644 33.3729 99.9068 32.8163 99.9068 32.1217C99.9068 31.4995 99.6893 30.9786 99.2625 30.5542C98.8334 30.131 98.124 29.7366 97.1273 29.3743C94.4176 28.375 93.0616 26.9133 93.0616 24.9905C93.0616 23.7347 93.5408 22.7066 94.4967 21.9028C95.4527 21.1001 96.7203 20.6987 98.2973 20.6987C99.7056 20.6987 100.879 20.9414 101.811 21.4255L101.188 23.4242C100.311 22.955 99.3218 22.7204 98.2147 22.7204C97.3401 22.7204 96.654 22.9332 96.1632 23.3564C95.7504 23.7347 95.541 24.1959 95.541 24.7433C95.541 25.347 95.7794 25.8484 96.2539 26.2417C96.6656 26.604 97.4169 26.9984 98.5031 27.4216C99.8358 27.9529 100.815 28.5716 101.442 29.2823C102.073 29.993 102.387 30.8797 102.387 31.9365Z" fill="white"/>
<path d="M110.606 27.0343H107.873V32.3922C107.873 33.7549 108.355 34.4346 109.32 34.4346C109.763 34.4346 110.131 34.3978 110.421 34.3207L110.49 36.1826C110.001 36.3631 109.358 36.454 108.562 36.454C107.582 36.454 106.817 36.1584 106.265 35.5673C105.715 34.9762 105.438 33.9861 105.438 32.5923V27.0297H103.81V25.1897H105.438V23.1692L107.873 22.4424V25.1897H110.606V27.0343Z" fill="white"/>
<path d="M122.913 30.6208C122.913 32.3171 122.422 33.7097 121.443 34.7988C120.418 35.92 119.055 36.4789 117.356 36.4789C115.716 36.4789 114.412 35.9419 113.44 34.8689C112.468 33.7937 111.982 32.439 111.982 30.8048C111.982 29.0948 112.484 27.6941 113.486 26.605C114.489 25.5148 115.841 24.9697 117.54 24.9697C119.177 24.9697 120.492 25.5079 121.488 26.582C122.439 27.6239 122.913 28.9694 122.913 30.6208ZM120.342 30.6772C120.342 29.6663 120.121 28.7992 119.678 28.0736C119.158 27.1973 118.414 26.7591 117.45 26.7591C116.457 26.7591 115.695 27.1973 115.176 28.0736C114.732 28.7992 114.511 29.6813 114.511 30.7232C114.511 31.7352 114.732 32.6046 115.176 33.3279C115.713 34.2042 116.46 34.6424 117.429 34.6424C118.377 34.6424 119.12 34.195 119.657 33.3061C120.113 32.5632 120.342 31.6903 120.342 30.6772Z" fill="white"/>
<path d="M130.975 27.3503C130.73 27.3054 130.467 27.2824 130.194 27.2824C129.322 27.2824 128.647 27.6067 128.173 28.2599C127.761 28.8349 127.554 29.5617 127.554 30.4392V36.2294H125.074V28.6693C125.074 27.3986 125.05 26.2394 125.002 25.1952H127.162L127.253 27.3066H127.321C127.584 26.5809 127.996 25.9956 128.561 25.5574C129.113 25.163 129.71 24.9663 130.353 24.9663C130.582 24.9663 130.789 24.9824 130.973 25.0112L130.975 27.3503Z" fill="white"/>
<path d="M142.064 30.1893C142.064 30.6286 142.035 30.9989 141.973 31.3013H134.535C134.563 32.3915 134.924 33.2264 135.614 33.8014C136.241 34.3143 137.052 34.5719 138.047 34.5719C139.149 34.5719 140.153 34.3994 141.057 34.051L141.445 35.7518C140.389 36.2072 139.143 36.4338 137.704 36.4338C135.974 36.4338 134.615 35.9301 133.627 34.925C132.641 33.9187 132.146 32.5663 132.146 30.8724C132.146 29.2095 132.606 27.8237 133.526 26.7186C134.489 25.5387 135.79 24.9487 137.427 24.9487C139.036 24.9487 140.253 25.5387 141.08 26.7186C141.735 27.6535 142.064 28.8127 142.064 30.1893ZM139.7 29.5533C139.717 28.8254 139.554 28.1986 139.218 27.6685C138.789 26.9854 138.129 26.645 137.244 26.645C136.433 26.645 135.772 26.9773 135.27 27.6443C134.857 28.1745 134.612 28.8116 134.536 29.551L139.7 29.5533Z" fill="white"/>
<path d="M56.691 15.4479H55.392L54.6814 13.2388H52.2101L51.5321 15.4479H50.2679L52.7171 7.92578H54.229L56.691 15.4479ZM54.4674 12.3119L53.8243 10.3477C53.7568 10.1464 53.6324 9.67838 53.4405 8.93088H53.4173C53.3382 9.25403 53.2254 9.72323 53.0556 10.3477L52.4241 12.3119H54.4674Z" fill="white"/>
<path d="M62.8152 10.0249L60.7381 15.4483H59.5531L57.5435 10.0249H58.853L59.7903 12.893C59.9485 13.3726 60.0834 13.8303 60.1845 14.2649H60.2183C60.309 13.8751 60.4439 13.4174 60.6125 12.893L61.5382 10.0249H62.8152Z" fill="white"/>
<path d="M67.2368 15.448L67.1461 14.8236H67.1123C66.7402 15.3261 66.1983 15.5711 65.5098 15.5711C64.5282 15.5711 63.8281 14.8903 63.8281 13.9749C63.8281 12.6363 65.0016 11.944 67.0333 11.944V11.8439C67.0333 11.1298 66.6495 10.7721 65.8936 10.7721C65.3516 10.7721 64.8771 10.9067 64.4608 11.1746L64.2131 10.3823C64.7213 10.0695 65.3528 9.91309 66.0982 9.91309C67.531 9.91309 68.2544 10.6606 68.2544 12.1567V14.1543C68.2544 14.7017 68.2776 15.126 68.3335 15.4492L67.2368 15.448ZM67.067 12.7467C65.7121 12.7467 65.0353 13.071 65.0353 13.8403C65.0353 14.4096 65.3853 14.6879 65.8703 14.6879C66.4913 14.6879 67.067 14.2198 67.067 13.5839V12.7467Z" fill="white"/>
<path d="M70.9687 9.13072C70.5628 9.13072 70.2465 8.81792 70.2465 8.40507C70.2465 7.99222 70.5732 7.69092 70.9919 7.69092C71.4094 7.69092 71.7478 7.99222 71.7362 8.40507C71.7362 8.84092 71.421 9.13072 70.9687 9.13072ZM71.6013 15.4477H70.3825V10.0243H71.6013V15.4477Z" fill="white"/>
<path d="M74.9856 15.4481H73.7668V7.53613H74.9856V15.4481Z" fill="white"/>
<path d="M80.1653 15.4482L80.0746 14.8238H80.0409C79.6688 15.3263 79.1268 15.5713 78.4384 15.5713C77.4568 15.5713 76.7567 14.8905 76.7567 13.9751C76.7567 12.6365 77.9301 11.9442 79.9618 11.9442V11.8441C79.9618 11.13 79.5781 10.7723 78.8221 10.7723C78.2802 10.7723 77.8057 10.9069 77.3894 11.1748L77.1405 10.3813C77.6487 10.0685 78.2802 9.91211 79.0257 9.91211C80.4584 9.91211 81.1818 10.6596 81.1818 12.1558V14.1533C81.1818 14.7007 81.2062 15.1251 81.2597 15.4482H80.1653ZM79.9956 12.7469C78.6407 12.7469 77.9639 13.0712 77.9639 13.8405C77.9639 14.4098 78.3139 14.6881 78.7989 14.6881C79.4199 14.6881 79.9956 14.22 79.9956 13.5841V12.7469Z" fill="white"/>
<path d="M86.1197 15.5712C85.3417 15.5712 84.7672 15.2469 84.3951 14.6109H84.3706L84.3009 15.4481H83.2623C83.2961 15.0134 83.3077 14.5212 83.3077 13.9865V7.53613H84.5276V10.8182H84.5509C84.9126 10.2156 85.4975 9.91433 86.3 9.91433C87.6211 9.91433 88.5468 11.031 88.5468 12.6594C88.5468 14.343 87.5188 15.5712 86.1197 15.5712ZM85.872 10.8608C85.1707 10.8608 84.5288 11.4634 84.5288 12.3006V13.2493C84.5288 13.9968 85.1056 14.6109 85.8511 14.6109C86.764 14.6109 87.3071 13.8749 87.3071 12.7031C87.3059 11.6094 86.7407 10.8608 85.872 10.8608Z" fill="white"/>
<path d="M91.5671 15.4481H90.3494V7.53613H91.5671V15.4481Z" fill="white"/>
<path d="M98.2018 13.0264H94.5431C94.5675 14.0534 95.2536 14.633 96.2701 14.633C96.812 14.633 97.3086 14.5433 97.7482 14.3765L97.9378 15.2137C97.4191 15.4368 96.8097 15.5484 96.0991 15.5484C94.3826 15.5484 93.3673 14.4766 93.3673 12.8148C93.3673 11.1519 94.407 9.90186 95.9619 9.90186C97.3609 9.90186 98.2425 10.9288 98.2425 12.4802C98.2471 12.6918 98.2366 12.8815 98.2018 13.0264ZM97.0841 12.1674C97.0841 11.3302 96.655 10.7391 95.8758 10.7391C95.1757 10.7391 94.6245 11.3417 94.5431 12.1674H97.0841Z" fill="white"/>
<path d="M105.589 15.5711C103.986 15.5711 102.948 14.3877 102.948 12.7812C102.948 11.1068 104.008 9.91309 105.681 9.91309C107.259 9.91309 108.322 11.0401 108.322 12.6926C108.322 14.3877 107.226 15.5711 105.589 15.5711ZM105.635 10.794C104.755 10.794 104.191 11.6082 104.191 12.7467C104.191 13.8633 104.767 14.6775 105.624 14.6775C106.481 14.6775 107.055 13.807 107.055 12.7237C107.056 11.6197 106.492 10.794 105.635 10.794Z" fill="white"/>
<path d="M114.874 15.4482H113.656V12.334C113.656 11.3749 113.284 10.8942 112.55 10.8942C111.828 10.8942 111.33 11.5083 111.33 12.2225V15.4482H110.113V11.575C110.113 11.0955 110.1 10.5814 110.068 10.0237H111.14L111.197 10.8609H111.23C111.556 10.2813 112.224 9.91211 112.968 9.91211C114.118 9.91211 114.874 10.7827 114.874 12.1995V15.4482Z" fill="white"/>
<path d="M122.848 10.9285H121.507V13.562C121.507 14.2324 121.744 14.5671 122.217 14.5671C122.432 14.5671 122.613 14.5441 122.759 14.5107L122.793 15.4261C122.555 15.5158 122.238 15.5607 121.846 15.5607C120.885 15.5607 120.312 15.0363 120.312 13.6632V10.9285H119.512V10.0246H120.312V9.03099L121.507 8.67334V10.0234H122.848V10.9285Z" fill="white"/>
<path d="M129.303 15.4481H128.083V12.3569C128.083 11.3863 127.711 10.8953 126.977 10.8953C126.346 10.8953 125.759 11.3196 125.759 12.1787V15.4481H124.539V7.53613H125.759V10.7941H125.783C126.166 10.203 126.72 9.91203 127.431 9.91203C128.592 9.91203 129.303 10.8044 129.303 12.2224V15.4481Z" fill="white"/>
<path d="M135.531 13.0264H131.873C131.896 14.0534 132.582 14.633 133.599 14.633C134.142 14.633 134.637 14.5433 135.077 14.3765L135.268 15.2137C134.749 15.4368 134.139 15.5484 133.428 15.5484C131.711 15.5484 130.696 14.4766 130.696 12.8148C130.696 11.1519 131.736 9.90186 133.291 9.90186C134.69 9.90186 135.571 10.9288 135.571 12.4802C135.576 12.6918 135.564 12.8815 135.531 13.0264ZM134.413 12.1674C134.413 11.3302 133.985 10.7391 133.206 10.7391C132.505 10.7391 131.953 11.3417 131.873 12.1674H134.413Z" fill="white"/>
</svg>
