<svg width="131" height="32" viewBox="0 0 131 32" fill="none" xmlns="http://www.w3.org/2000/svg">
<path d="M65.7678 17.5598C63.141 17.5598 60.9952 19.6541 60.9952 22.5436C60.9952 25.4097 63.141 27.5259 65.7678 27.5259C68.4002 27.5259 70.5461 25.4097 70.5461 22.5436C70.5461 19.6541 68.4002 17.5598 65.7678 17.5598ZM65.7678 25.5634C64.3265 25.5634 63.0865 24.3171 63.0865 22.5436C63.0865 20.7466 64.3265 19.5223 65.7678 19.5223C67.2091 19.5223 68.4547 20.7466 68.4547 22.5436C68.4547 24.3171 67.2091 25.5634 65.7678 25.5634ZM55.3544 17.5598C52.722 17.5598 50.5817 19.6541 50.5817 22.5436C50.5817 25.4097 52.722 27.5259 55.3544 27.5259C57.9853 27.5259 60.127 25.4097 60.127 22.5436C60.127 19.6541 57.9853 17.5598 55.3544 17.5598ZM55.3544 25.5634C53.9117 25.5634 52.6675 24.3171 52.6675 22.5436C52.6675 20.7466 53.9117 19.5223 55.3544 19.5223C56.7957 19.5223 58.0357 20.7466 58.0357 22.5436C58.0357 24.3171 56.7957 25.5634 55.3544 25.5634ZM42.9629 19.0873V21.205H47.79C47.6488 22.3884 47.2714 23.2583 46.6926 23.8646C45.9881 24.5968 44.8906 25.4097 42.9629 25.4097C39.9922 25.4097 37.666 22.898 37.666 19.7859C37.666 16.6738 39.9922 14.1621 42.9629 14.1621C44.5691 14.1621 45.7378 14.8197 46.6003 15.672L48.0249 14.1797C46.8184 12.9729 45.2136 12.0459 42.9629 12.0459C38.8892 12.0459 35.4656 15.5183 35.4656 19.7859C35.4656 24.0535 38.8892 27.5259 42.9629 27.5259C45.1646 27.5259 46.8184 26.7702 48.1185 25.3525C49.4508 23.9568 49.866 21.9944 49.866 20.4098C49.866 19.9177 49.828 19.4651 49.7568 19.0873H42.9629ZM93.6334 20.729C93.2404 19.6145 92.0285 17.5598 89.5597 17.5598C87.1133 17.5598 85.0765 19.5794 85.0765 22.5436C85.0765 25.3349 87.0923 27.5259 89.7946 27.5259C91.9796 27.5259 93.2406 26.1302 93.7592 25.3174L92.1376 24.1853C91.5966 25.0142 90.8599 25.5634 89.7946 25.5634C88.7364 25.5634 87.9772 25.0552 87.4907 24.0535L93.8529 21.2958L93.6334 20.729ZM87.1469 22.3883C87.0925 20.4669 88.5714 19.4827 89.631 19.4827C90.4614 19.4827 91.166 19.9176 91.4009 20.5401L87.1469 22.3883ZM81.9758 27.2227H84.0672V12.5775H81.9758V27.2227ZM78.5508 18.6699H78.4808C78.0111 18.087 77.115 17.5598 75.9798 17.5598C73.5977 17.5598 71.4197 19.7507 71.4197 22.5597C71.4197 25.3525 73.5977 27.5259 75.9798 27.5259C77.115 27.5259 78.0111 26.9943 78.4808 26.3938H78.5508V27.1085C78.5508 29.0138 77.5792 30.0375 76.0121 30.0375C74.7344 30.0375 73.9417 29.0709 73.6146 28.2581L71.7958 29.0534C72.3201 30.3743 73.7082 32 76.0121 32C78.4641 32 80.5331 30.4886 80.5331 26.8112V17.863H78.5508V18.6699ZM76.1589 25.5634C74.7176 25.5634 73.5111 24.2995 73.5111 22.5597C73.5111 20.8037 74.7176 19.5223 76.1589 19.5223C77.5792 19.5223 78.699 20.8037 78.699 22.5597C78.699 24.2995 77.5792 25.5634 76.1589 25.5634ZM103.425 12.5775H98.4228V27.2227H100.509V21.6737H103.425C105.741 21.6737 108.013 19.9177 108.013 17.1248C108.013 14.3335 105.736 12.5775 103.425 12.5775ZM103.479 19.6365H100.508V14.6147H103.479C105.036 14.6147 105.926 15.9693 105.926 17.1248C105.926 18.2584 105.036 19.6365 103.479 19.6365ZM116.373 17.532C114.866 17.532 113.298 18.2291 112.654 19.7742L114.505 20.587C114.903 19.7742 115.636 19.5106 116.41 19.5106C117.492 19.5106 118.59 20.1915 118.606 21.3939V21.5477C118.229 21.3193 117.421 20.9809 116.427 20.9809C114.434 20.9809 112.402 22.1305 112.402 24.276C112.402 26.2385 114.035 27.5024 115.871 27.5024C117.274 27.5024 118.049 26.8389 118.535 26.0672H118.606V27.1992H120.621V21.5813C120.621 18.9848 118.77 17.5319 116.372 17.5319L116.373 17.532ZM116.121 25.5576C115.439 25.5576 114.488 25.2031 114.488 24.3171C114.488 23.1836 115.673 22.7486 116.7 22.7486C117.618 22.7486 118.049 22.9609 118.606 23.2407C118.443 24.5968 117.329 25.5576 116.121 25.5576V25.5576ZM127.96 17.8527L125.563 24.2014H125.491L123.013 17.8527H120.763L124.488 26.7248L122.363 31.6617H124.542L130.281 17.8527H127.96ZM109.159 27.2227H111.25V12.5775H109.159V27.2227Z" fill="white"/>
<path d="M1.23788 0.906721C0.90936 1.26699 0.719238 1.8279 0.719238 2.55429V28.4643C0.719238 29.1907 0.90936 29.7516 1.23788 30.1119L1.31896 30.191L15.1784 15.6777V15.335L1.31896 0.821777L1.23788 0.906721Z" fill="white"/>
<path d="M1.31361 30.38L15.3435 15.4933L1.32536 0.633301C0.950942 0.864655 0.719238 1.40033 0.719238 2.10152V28.9261C0.72426 29.6273 0.947584 30.1238 1.31361 30.38V30.38Z" fill="white"/>
<path d="M15.846 15.9062L2.021 30.576C2.36799 30.5821 2.70978 30.486 3.00826 30.2983L20.0603 20.3696L15.846 15.9062Z" fill="white"/>
<path d="M15.846 15.0824L20.0251 10.6475L3.00659 0.745609C2.72002 0.568931 2.39451 0.475609 2.06299 0.475098L15.8443 15.0806L15.846 15.0824Z" fill="white"/>
<path d="M26.1904 14.2402L20.5271 10.939L16.2339 15.4949L20.559 20.0793L26.1888 16.7869C27.3859 16.0875 27.3859 14.9361 26.1905 14.2402H26.1904Z" fill="white"/>
<path d="M73.979 0.160645V7.42001H74.0893H75.0579V2.92499L75.03 1.93148L78.2989 7.42001H79.3722V0.160645H78.2877V4.39222L78.3156 5.38219L75.1994 0.160645H73.979Z" fill="white"/>
<path d="M58.4371 0.160645V1.2593H60.3162V7.42001H61.3962V7.30187V1.2593H63.2741V0.160645H58.4371Z" fill="white"/>
<path d="M56.4878 0.160645V7.42001H56.5981H57.5722V0.160645H56.4878Z" fill="white"/>
<path d="M48.5424 0.160645V1.2593H50.4147V7.42001H51.5014V7.30187V1.2593H53.3738V0.160645H48.5424Z" fill="white"/>
<path d="M43.7256 0.160645V7.42001H47.8638V6.32136H44.8122V4.33197H47.5629V3.24986H44.8122V1.2593H47.8638V1.14116V0.160645H43.7256Z" fill="white"/>
<path d="M69.4319 0C68.4239 0 67.5702 0.36887 66.8897 1.09982C66.2108 1.82906 65.8688 2.73476 65.8688 3.79091C65.8688 4.84707 66.2109 5.75276 66.8897 6.48199C67.5702 7.21295 68.4239 7.58182 69.4319 7.58182C70.4345 7.58182 71.288 7.213 71.9685 6.48199C72.6474 5.75276 72.9894 4.84706 72.9894 3.79091C72.9894 2.74081 72.6465 1.84029 71.963 1.10573C71.2824 0.368728 70.429 0 69.4319 0V0ZM69.4319 1.09864C70.1219 1.09864 70.6989 1.3484 71.1716 1.85352C71.6474 2.35771 71.8872 2.99786 71.8872 3.79091C71.8872 4.58397 71.6476 5.22294 71.1716 5.72712C70.6989 6.23216 70.1219 6.48199 69.4319 6.48199C68.7361 6.48199 68.1655 6.23188 67.6866 5.72594C67.2112 5.22187 66.971 4.58359 66.971 3.79091C66.971 2.99823 67.2111 2.35877 67.6866 1.8547C68.1655 1.34884 68.7361 1.09864 69.4319 1.09864V1.09864Z" fill="white"/>
<path d="M39.2985 3.69164e-05C38.3072 3.69164e-05 37.4495 0.367947 36.7541 1.09158C36.0564 1.81484 35.7042 2.72259 35.7042 3.79091C35.7042 4.85926 36.0557 5.76487 36.753 6.49379V6.495H36.7541C37.4496 7.21305 38.3069 7.58182 39.2986 7.58182C40.3328 7.58182 41.1926 7.22009 41.8464 6.50562L41.8475 6.50441C42.4194 5.89702 42.709 5.07703 42.709 4.07561V4.01417L42.7023 4.00934C42.6995 3.85129 42.692 3.68965 42.6566 3.51909L42.6365 3.42588H39.1871V4.50798H41.5733C41.5084 5.01462 41.371 5.4405 41.094 5.73183C40.6178 6.23065 40.0218 6.48197 39.2985 6.48197C38.6207 6.48197 38.0425 6.23201 37.5421 5.73656L37.5409 5.73535C37.0502 5.23599 36.8053 4.59216 36.8053 3.7897C36.8053 2.98662 37.0502 2.34979 37.542 1.84997C38.0422 1.34905 38.6199 1.10455 39.2985 1.10455C40.0555 1.10455 40.627 1.36305 41.055 1.89249L41.133 1.98936L41.8753 1.20496L41.8095 1.12227C41.5389 0.780257 41.1677 0.506725 40.7184 0.305973C40.2685 0.10744 39.7946 0 39.2985 0L39.2985 3.69164e-05Z" fill="white"/>
</svg>
