<svg width="157" height="39" viewBox="0 0 157 39" fill="none" xmlns="http://www.w3.org/2000/svg">
<path d="M78.8245 21.2788C75.6414 21.2788 73.0411 23.8166 73.0411 27.318C73.0411 30.7911 75.6414 33.3555 78.8245 33.3555C82.0143 33.3555 84.6147 30.7911 84.6147 27.318C84.6147 23.8166 82.0143 21.2788 78.8245 21.2788ZM78.8245 30.9774C77.078 30.9774 75.5754 29.4672 75.5754 27.318C75.5754 25.1405 77.078 23.6569 78.8245 23.6569C80.5711 23.6569 82.0804 25.1405 82.0804 27.318C82.0804 29.4672 80.5711 30.9774 78.8245 30.9774ZM66.2057 21.2788C63.0159 21.2788 60.4223 23.8166 60.4223 27.318C60.4223 30.7911 63.0159 33.3555 66.2057 33.3555C69.3939 33.3555 71.9891 30.7911 71.9891 27.318C71.9891 23.8166 69.3939 21.2788 66.2057 21.2788ZM66.2057 30.9774C64.4575 30.9774 62.9498 29.4672 62.9498 27.318C62.9498 25.1405 64.4575 23.6569 66.2057 23.6569C67.9523 23.6569 69.4549 25.1405 69.4549 27.318C69.4549 29.4672 67.9523 30.9774 66.2057 30.9774ZM51.1899 23.1298V25.696H57.0394C56.8682 27.1299 56.4109 28.1841 55.7096 28.9188C54.8558 29.8061 53.526 30.7911 51.1899 30.7911C47.5901 30.7911 44.7713 27.7475 44.7713 23.9763C44.7713 20.2051 47.5901 17.1616 51.1899 17.1616C53.1363 17.1616 54.5525 17.9584 55.5978 18.9912L57.324 17.1828C55.862 15.7205 53.9173 14.5972 51.1899 14.5972C46.2536 14.5972 42.1049 18.8049 42.1049 23.9763C42.1049 29.1477 46.2536 33.3555 51.1899 33.3555C53.858 33.3555 55.862 32.4397 57.4375 30.7219C59.0519 29.0306 59.555 26.6525 59.555 24.7323C59.555 24.136 59.509 23.5877 59.4226 23.1298H51.1899ZM112.591 25.1192C112.115 23.7687 110.647 21.2788 107.655 21.2788C104.691 21.2788 102.222 23.7261 102.222 27.318C102.222 30.7005 104.665 33.3555 107.94 33.3555C110.587 33.3555 112.115 31.6642 112.744 30.6793L110.779 29.3075C110.123 30.3119 109.231 30.9774 107.94 30.9774C106.657 30.9774 105.737 30.3616 105.148 29.1477L112.857 25.806L112.591 25.1192ZM104.731 27.1299C104.665 24.8015 106.457 23.6089 107.741 23.6089C108.748 23.6089 109.602 24.1359 109.886 24.8903L104.731 27.1299ZM98.465 32.9881H100.999V15.2414H98.465V32.9881ZM94.3147 22.624H94.2298C93.6606 21.9177 92.5748 21.2788 91.1992 21.2788C88.3126 21.2788 85.6733 23.9337 85.6733 27.3375C85.6733 30.7219 88.3126 33.3555 91.1992 33.3555C92.5748 33.3555 93.6606 32.7113 94.2298 31.9837H94.3147V32.8497C94.3147 35.1585 93.1373 36.399 91.2383 36.399C89.69 36.399 88.7295 35.2278 88.3331 34.2428L86.1291 35.2065C86.7644 36.8072 88.4465 38.7771 91.2383 38.7771C94.2096 38.7771 96.7168 36.9456 96.7168 32.4894V21.6462H94.3147V22.624ZM91.4162 30.9774C89.6696 30.9774 88.2077 29.4459 88.2077 27.3375C88.2077 25.2097 89.6696 23.6569 91.4162 23.6569C93.1373 23.6569 94.4942 25.2097 94.4942 27.3375C94.4942 29.4459 93.1373 30.9774 91.4162 30.9774ZM124.456 15.2414H118.395V32.9881H120.923V26.2639H124.456C127.263 26.2639 130.016 24.136 130.016 20.7517C130.016 17.3692 127.257 15.2414 124.456 15.2414ZM124.522 23.7953H120.922V17.7099H124.522C126.409 17.7099 127.487 19.3515 127.487 20.7517C127.487 22.1253 126.409 23.7953 124.522 23.7953ZM140.146 21.2451C138.32 21.2451 136.421 22.0898 135.64 23.9621L137.883 24.9471C138.366 23.9621 139.254 23.6427 140.192 23.6427C141.503 23.6427 142.833 24.4679 142.853 25.9249V26.1112C142.396 25.8345 141.417 25.4244 140.212 25.4244C137.797 25.4244 135.335 26.8175 135.335 29.4174C135.335 31.7955 137.314 33.3271 139.538 33.3271C141.239 33.3271 142.177 32.5231 142.767 31.5879H142.853V32.9597H145.294V26.152C145.294 23.0055 143.052 21.245 140.146 21.245L140.146 21.2451ZM139.841 30.9703C139.015 30.9703 137.863 30.5408 137.863 29.4672C137.863 28.0936 139.299 27.5665 140.543 27.5665C141.656 27.5665 142.177 27.8238 142.853 28.1628C142.655 29.8061 141.305 30.9703 139.841 30.9703V30.9703ZM154.188 21.6337L151.283 29.327H151.196L148.193 21.6337H145.467L149.98 32.3847L147.405 38.3672H150.046L157 21.6337H154.188ZM131.405 32.9881H133.939V15.2414H131.405V32.9881Z" fill="white"/>
<path d="M0.628481 1.09854C0.230386 1.5351 0 2.2148 0 3.09503V34.4923C0 35.3725 0.230386 36.0522 0.628481 36.4888L0.726735 36.5846L17.5213 18.9978V18.5825L0.726735 0.995605L0.628481 1.09854Z" fill="white"/>
<path d="M0.720247 36.8141L17.7213 18.7747L0.73449 0.767578C0.280774 1.04793 0 1.69705 0 2.54673V35.0522C0.00608504 35.9019 0.276705 36.5035 0.720247 36.8141V36.8141Z" fill="white"/>
<path d="M18.3303 19.2749L1.57739 37.0514C1.99787 37.0588 2.41204 36.9424 2.77374 36.715L23.4371 24.6835L18.3303 19.2749Z" fill="white"/>
<path d="M18.3303 18.2765L23.3944 12.9024L2.77174 0.903483C2.42448 0.689389 2.03003 0.576304 1.6283 0.575684L18.3283 18.2743L18.3303 18.2765Z" fill="white"/>
<path d="M30.8655 17.2563L24.0028 13.2559L18.8003 18.7766L24.0414 24.3319L30.8634 20.3423C32.3141 19.4948 32.3141 18.0995 30.8655 17.2563H30.8655Z" fill="white"/>
<path d="M88.7747 0.194824V8.99158H88.9084H90.082V3.5446L90.0482 2.34069L94.0094 8.99158H95.31V0.194824H93.9959V5.32257L94.0296 6.52219L90.2535 0.194824H88.7747Z" fill="white"/>
<path d="M69.9414 0.194824V1.52615H72.2184V8.99158H73.5271V8.84842V1.52615H75.8028V0.194824H69.9414Z" fill="white"/>
<path d="M67.5792 0.194824V8.99158H67.7129H68.8933V0.194824H67.5792Z" fill="white"/>
<path d="M57.9512 0.194824V1.52615H60.2201V8.99158H61.5369V8.84842V1.52615H63.8058V0.194824H57.9512Z" fill="white"/>
<path d="M52.1143 0.194824V8.99158H57.1288V7.66025H53.431V5.24956H56.7642V3.93828H53.431V1.52615H57.1288V1.38299V0.194824H52.1143Z" fill="white"/>
<path d="M83.2646 0C82.0431 0 81.0086 0.446989 80.184 1.33274C79.3614 2.21642 78.9469 3.31393 78.9469 4.59375C78.9469 5.87358 79.3615 6.97108 80.184 7.85475C81.0086 8.74051 82.0431 9.18749 83.2646 9.18749C84.4795 9.18749 85.5138 8.74056 86.3385 7.85475C87.1611 6.97108 87.5756 5.87357 87.5756 4.59375C87.5756 3.32126 87.1601 2.23003 86.3317 1.3399C85.5071 0.446817 84.4729 0 83.2646 0V0ZM83.2646 1.33131C84.1007 1.33131 84.8 1.63396 85.3728 2.24605C85.9494 2.85702 86.2399 3.63275 86.2399 4.59375C86.2399 5.55477 85.9495 6.32906 85.3728 6.94001C84.8 7.55201 84.1007 7.85475 83.2646 7.85475C82.4215 7.85475 81.73 7.55166 81.1496 6.93858C80.5736 6.32775 80.2826 5.5543 80.2826 4.59375C80.2826 3.6332 80.5735 2.85831 81.1496 2.24749C81.73 1.6345 82.4215 1.33131 83.2646 1.33131V1.33131Z" fill="white"/>
<path d="M46.7496 4.47346e-05C45.5483 4.47346e-05 44.5089 0.445871 43.6663 1.32276C42.8208 2.19919 42.394 3.29918 42.394 4.59375C42.394 5.88835 42.82 6.98575 43.6649 7.86904V7.87051H43.6663C44.5091 8.74063 45.5479 9.18749 46.7496 9.18749C48.0029 9.18749 49.0448 8.74916 49.837 7.88338L49.8383 7.88191C50.5314 7.14589 50.8823 6.15224 50.8823 4.93875V4.8643L50.8742 4.85844C50.8708 4.66692 50.8617 4.47105 50.8188 4.26436L50.7945 4.15142H46.6145V5.46268H49.506C49.4274 6.07662 49.261 6.59269 48.9253 6.94572C48.3482 7.55018 47.626 7.85473 46.7496 7.85473C45.9282 7.85473 45.2275 7.55183 44.6211 6.95145L44.6197 6.94998C44.025 6.34486 43.7284 5.56469 43.7284 4.59229C43.7284 3.61912 44.0251 2.84743 44.6211 2.24175C45.2271 1.63475 45.9272 1.33847 46.7495 1.33847C47.6668 1.33847 48.3593 1.65171 48.878 2.29329L48.9725 2.41067L49.872 1.46015L49.7923 1.35994C49.4644 0.9455 49.0146 0.614039 48.4701 0.370772C47.9249 0.130194 47.3507 0 46.7495 0L46.7496 4.47346e-05Z" fill="white"/>
</svg>
